# xmcd
#
# Track frame offsets: 
#        150
#        2369
#        4361
#        15938
#        16253
#        24863
#        25836
#        26211
#        37047
#        41509
#        77868
#        81087
#        88460
#        90284
#        99764
#        100067
#        109835
#        120149
#        123250
#        124246
#        136129
#        147031
#        151475
#        155282
#        159493
#        166624
#        178428
#        208362
#        299445
#        324546
#        329214
#        331395
#
# Disc length: 4480 seconds
#
# Revision: 0
# Processed by: cddbd v1.5.2PL0 Copyright (c) Steve Scherf et al.
# Submitted via: ExactAudioCopy v0.95b3
#
DISCID=9b117e20
DTITLE=The Beatles  - Turn Left At Greenland - Disc 2
DYEAR=1900
DGENRE=
TTITLE0=Ed Sullivan Intro
TTITLE1=Twist And Shout
TTITLE2=Please Please Me
TTITLE3=Outro
TTITLE4=I Want To Hold Your Hand
TTITLE5=06  Outro 
TTITLE6=Unknown
TTITLE7=I Want To Hold Your Hand
TTITLE8=Outro
TTITLE9=Plaza Hotel W\\ Murray The 'K'
TTITLE10=CBS 'White Christmas' Interview
TTITLE11=Ed Sullivan Intro
TTITLE12=Unknown
TTITLE13=All My Loving
TTITLE14=Unknown
TTITLE15=Till There Was You
TTITLE16=She Loves You
TTITLE17=Outro
TTITLE18=Unknown
TTITLE19=I Saw Her Standing There
TTITLE20=I Want To Hold Your Hand
TTITLE21=Outro
TTITLE22=Ed Sullivan Outro
TTITLE23=Carroll James Backstage At 'The Ed Sullivan Show'
TTITLE24=AP Plaza Hotel Interview
TTITLE25=CBS Plaza Hotel Interview
TTITLE26=Ed Rudy Plaza Hotel Interviews
TTITLE27='Assignment: Hollywood' Fred Robbins For Radio Luxumbourg
TTITLE28=CBS Fans Interviews
TTITLE29=Year In Review 1964
TTITLE30=Ed Rudy W\\ Mal Evans
TTITLE31=Ed Rudy Promos
EXTD=
EXTT0=
EXTT1=
EXTT2=
EXTT3=
EXTT4=
EXTT5=
EXTT6=
EXTT7=
EXTT8=
EXTT9=
EXTT10=
EXTT11=
EXTT12=
EXTT13=
EXTT14=
EXTT15=
EXTT16=
EXTT17=
EXTT18=
EXTT19=
EXTT20=
EXTT21=
EXTT22=
EXTT23=
EXTT24=
EXTT25=
EXTT26=
EXTT27=
EXTT28=
EXTT29=
EXTT30=
EXTT31=
PLAYORDER=
